<?xml version="1.0" encoding="utf-8"?>
<!-- Generator: Adobe Illustrator 15.1.0, SVG Export Plug-In . SVG Version: 6.00 Build 0)  -->
<!DOCTYPE svg PUBLIC "-//W3C//DTD SVG 1.1//EN" "http://www.w3.org/Graphics/SVG/1.1/DTD/svg11.dtd">
<svg version="1.1" id="Слой_1" xmlns="http://www.w3.org/2000/svg" xmlns:xlink="http://www.w3.org/1999/xlink" x="0px" y="0px"
	 width="224.255px" height="30.051px" viewBox="0 0 224.255 30.051" enable-background="new 0 0 224.255 30.051"
	 xml:space="preserve">
<g id="Слой_x0020_1">
	<g id="_433214121264">
		<path d="M10.514,18.862c-0.06,0-0.12,0-0.18,0c-4.32,0-7.83-3.511-7.83-7.83c0-4.32,3.51-7.83,7.83-7.83c0.06,0,0.12,0,0.18,0
			v-2.25c-0.06,0-0.12,0-0.18,0c-5.58,0-10.08,4.5-10.08,10.08c0,5.551,4.5,10.08,10.08,10.08c0.06,0,0.12,0,0.18,0V18.862z"/>
		<path d="M10.334,7.672c0.06,0,0.12,0,0.18,0v-2.22c-0.06,0-0.12-0.03-0.18-0.03c-3.09,0-5.61,2.52-5.61,5.61
			s2.52,5.579,5.61,5.579c0.06,0,0.3,0,0.36,0c1.86,0,3.359,1.501,3.359,3.361c0,1.859-1.5,3.358-3.359,3.358
			c-0.06,0-0.12,0-0.181-0.029v2.251c0.061,0,0.121,0,0.181,0c3.09,0,5.609-2.491,5.609-5.58c0-3.091-2.52-5.61-5.609-5.61
			c-0.06,0-0.301,0.03-0.36,0.03c-1.86,0-3.359-1.5-3.359-3.36S8.474,7.672,10.334,7.672z"/>
		<path d="M10.695,9.893c-0.06,0-0.12,0-0.181,0v2.25c0.061,0,0.121,0,0.181,0c4.349,0,7.859,3.51,7.859,7.831
			c0,4.318-3.51,7.829-7.859,7.829c-0.06,0-0.12,0-0.181,0v2.249h0.15l0,0l0,0l0,0l0,0l0,0l0,0h0.06
			c5.549-0.029,10.049-4.529,10.049-10.078C20.774,14.393,16.274,9.893,10.695,9.893z"/>
		<path d="M26.774,15.021c0,3.93,1.47,5.101,4.56,5.101c0.9,0,2.07-0.121,2.82-0.301l-0.45-2.009c-0.45,0.149-1.29,0.239-1.89,0.239
			c-1.95,0-2.67-0.359-2.67-3c0-2.67,0.72-2.97,2.67-2.97c0.6,0,1.439,0.12,1.89,0.27l0.45-1.98c-0.75-0.18-1.92-0.33-2.82-0.33
			C28.244,10.042,26.774,11.063,26.774,15.021z M42.133,19.941h2.459c-1.02-2.521-2.459-6.629-3.39-9.659h-3.45
			c-1.11,2.7-2.61,6.96-3.42,9.659h2.37c0.18-0.6,0.39-1.349,0.629-2.129h3.99C41.623,18.622,41.893,19.371,42.133,19.941z
			 M39.523,12.202c0.3,1.05,0.72,2.37,1.17,3.659h-2.79c0.45-1.32,0.9-2.639,1.26-3.659H39.523z M51.133,15.922
			c-0.72-1.8-1.68-4.049-2.46-5.64h-3v9.659h2.16v-6.539c0.69,1.56,1.649,4.109,2.25,5.729h1.77c0.66-1.62,1.65-4.11,2.4-5.729
			v6.539h2.16v-9.659h-2.85C52.783,11.873,51.822,14.092,51.133,15.922z M65.442,19.941h2.46c-1.02-2.521-2.46-6.629-3.39-9.659
			h-3.45c-1.11,2.7-2.61,6.96-3.42,9.659h2.37c0.18-0.6,0.39-1.349,0.63-2.129h3.99C64.932,18.622,65.202,19.371,65.442,19.941z
			 M62.833,12.202c0.3,1.05,0.72,2.37,1.17,3.659h-2.79c0.45-1.32,0.899-2.639,1.259-3.659H62.833z M71.202,15.082v-2.88h2.43
			c0.601,0,0.93,0.421,0.93,1.47c0,1.02-0.39,1.41-0.959,1.41H71.202z M71.202,19.941v-3h3.18c1.8,0,2.64-1.529,2.64-3.27
			c0-1.979-0.66-3.39-2.64-3.39h-5.4v9.659H71.202z M78.372,15.021c0,3.93,1.47,5.101,4.56,5.101c0.93,0,2.07-0.121,2.82-0.301
			l-0.45-2.009c-0.45,0.149-1.26,0.239-1.89,0.239c-1.95,0-2.67-0.359-2.67-3c0-2.67,0.72-2.97,2.67-2.97
			c0.63,0,1.44,0.12,1.89,0.27l0.45-1.98c-0.75-0.18-1.89-0.33-2.82-0.33C79.841,10.042,78.372,11.063,78.372,15.021z
			 M95.891,19.941c-1.38-4.199-2.37-4.949-3.39-5.34c0.42-0.39,1.529-1.83,3.15-4.319h-2.67c-1.23,1.979-2.61,3.75-3.39,4.62v-4.62
			h-2.25v9.659h2.25v-4.5c1.53,0.15,2.429,0.961,3.66,4.5H95.891z M106.001,10.282h-2.73c-1.2,2.19-2.49,4.44-3.84,6.63v-6.63
			h-2.189v9.659h2.939c1.23-2.04,2.489-4.229,3.63-6.359v6.359h2.19V10.282z M117.4,10.282h-2.729c-1.171,2.19-2.49,4.44-3.841,6.63
			v-6.63h-2.19v9.659h2.939c1.231-2.04,2.49-4.229,3.631-6.359v6.359h2.19V10.282z M110.8,7.853c0,1.379,0.84,1.98,2.19,1.98
			c1.409,0,2.188-0.601,2.188-1.98h-1.29c0,0.6-0.299,0.72-0.838,0.72c-0.571,0-0.841-0.12-0.841-0.72H110.8z M125.769,19.941
			h-1.199c0.511-0.66,1.11-1.561,1.561-2.369c-0.57-1.801-2.222-5.37-3.39-7.29h1.14c0.929,1.68,2.129,4.17,2.879,6.24
			c1.021-2.07,2.19-4.47,2.79-6.24h1.05C129.339,13.492,127.36,17.421,125.769,19.941z M133.329,15.202h5.129v4.739h0.99v-9.659
			h-0.99v4.02h-5.129v-4.02h-0.99v9.659h0.99V15.202z M143.648,18.892c1.859-2.88,3.6-5.79,5.131-8.609h1.168v9.659h-0.959v-8.219
			c-1.53,2.76-3.27,5.67-4.979,8.219h-1.35v-9.659h0.989V18.892z M157.958,19.102h-3.779v-3.93h3.72c0.989,0,1.409,0.87,1.409,2.01
			S158.978,19.102,157.958,19.102z M157.808,14.362h-3.629v-3.24h3.629c1.02,0,1.29,0.6,1.29,1.56
			C159.098,13.553,158.827,14.362,157.808,14.362L157.808,14.362z M158.197,14.752c1.741-0.18,1.921-1.05,1.921-2.189
			c0-1.2-0.36-2.28-2.311-2.28h-4.62v9.659h4.771c1.561,0,2.43-0.93,2.43-2.729C160.388,15.893,160.027,14.813,158.197,14.752
			L158.197,14.752z M169.747,10.282v0.84h-5.608v3.24h3.988v0.81h-3.988v3.93h5.608v0.84h-6.6v-9.659H169.747z M173.018,15.502
			v-4.38h3.358c1.051,0,1.591,0.84,1.591,2.28c0,1.229-0.51,2.1-1.649,2.1H173.018z M173.018,19.941v-3.539h3.358
			c2.011,0,2.701-1.471,2.701-3c0-1.65-0.601-3.12-2.76-3.12h-4.32v9.659H173.018z M180.906,15.021c0,3.93,1.44,5.101,4.411,5.101
			c0.869,0,1.979-0.149,2.698-0.39l-0.299-0.87c-0.6,0.21-1.62,0.359-2.371,0.359c-2.43,0-3.358-0.66-3.358-4.2
			c0-3.539,0.929-4.079,3.358-4.079c0.751,0,1.771,0.149,2.371,0.36l0.299-0.9c-0.72-0.209-1.829-0.36-2.698-0.36
			C182.347,10.042,180.906,11.063,180.906,15.021z M191.196,18.892c1.86-2.88,3.6-5.79,5.13-8.609h1.17v9.659h-0.96v-8.219
			c-1.529,2.76-3.271,5.67-4.979,8.219h-1.381v-9.659h1.021V18.892z M203.766,11.122h3.36v-0.84h-7.711v0.84h3.331v8.819h1.02
			V11.122z M215.615,10.282v0.84h-5.61v3.24h3.99v0.81h-3.99v3.93h5.61v0.84h-6.6v-9.659H215.615z M220.925,11.122h3.33v-0.84h-7.68
			v0.84h3.33v8.819h1.02V11.122z"/>
	</g>
</g>
</svg>
